<svg width="28" height="27" viewBox="0 0 28 27" fill="none" xmlns="http://www.w3.org/2000/svg">
<path d="M11.055 26.8861C11.8157 26.8871 12.5578 26.651 13.1782 26.2107C13.7985 25.7704 14.2663 25.1478 14.5164 24.4294H7.59355C7.84372 25.1478 8.31148 25.7704 8.93183 26.2107C9.55218 26.651 10.2943 26.8871 11.055 26.8861ZM19.6533 17.7793V12.1461C19.6533 8.19457 16.9694 4.86579 13.3335 3.8647C12.9736 2.95819 12.0942 2.31946 11.055 2.31946C10.0158 2.31946 9.13634 2.95819 8.77644 3.8647C5.14057 4.86702 2.45667 8.19457 2.45667 12.1461V17.7793L0.359903 19.876C0.245615 19.9899 0.154979 20.1252 0.0932125 20.2743C0.0314455 20.4233 -0.000232706 20.5831 1.28689e-06 20.7444V21.9728C1.28689e-06 22.2985 0.129414 22.611 0.359771 22.8413C0.590128 23.0717 0.90256 23.2011 1.22833 23.2011H20.8817C21.2074 23.2011 21.5199 23.0717 21.7502 22.8413C21.9806 22.611 22.11 22.2985 22.11 21.9728V20.7444C22.1102 20.5831 22.0785 20.4233 22.0168 20.2743C21.955 20.1252 21.8644 19.9899 21.7501 19.876L19.6533 17.7793Z" fill="#8D8D8D"/>
<circle cx="19.1683" cy="8.46113" r="7.14167" fill="#FF0000" stroke="#F6F7F7" stroke-width="2"/>
</svg>
